# xmcd
#
# Track frame offsets:
#	180
#	17289
#	31328
#	45735
#	58675
#	70175
#	73466
#	84412
#	101564
#	115937
#	135638
#	147233
#	161095
#	167667
#	186135
#	195783
#
# Disc length: 2767 seconds
#
# Revision: 0
# Processed by: cddbd v1.5.1PL2 Copyright (c) Steve Scherf et al.
# Submitted via: dBpowerAMP V4.0
#
DISCID=d80acd10
DTITLE=Les Getrex - Fall In Love
DYEAR=1997
DGENRE=Blues
TTITLE0=Fall In Love (Getrex)
TTITLE1=You Better Move On
TTITLE2=Nothing Can Change This Love (Cooke)
TTITLE3=Hoochie Coochie Man (Dixon)
TTITLE4=Wonderful World (Cooke)
TTITLE5=When We All Get To Heaven - Merlin A. Gettridge Sr
TTITLE6=Pledging My Love (Robey/Washington)
TTITLE7=All These Things
TTITLE8=Banana Song (Arkin/Care)
TTITLE9=I Don't Need You
TTITLE10=Unchain My Heart (James/Sharp)
TTITLE11=Don't You Say A Mumblin' Word (Getrex)
TTITLE12=Red Beans <<N>> Rice (Getrex)
TTITLE13=Elvina
TTITLE14=Ain't That A Shame
TTITLE15=Louie Louie
EXTD=CD made in Switzerland.  Used to sing in New Orleans
EXTT0=
EXTT1=
EXTT2=
EXTT3=
EXTT4=
EXTT5=
EXTT6=
EXTT7=
EXTT8=
EXTT9=
EXTT10=
EXTT11=
EXTT12=
EXTT13=
EXTT14=
EXTT15=
PLAYORDER=
